<?xml version="1.0" encoding="UTF-8" standalone="no"?>
<!-- Created with Inkscape (http://www.inkscape.org/) -->

<svg
   xmlns:dc="http://purl.org/dc/elements/1.1/"
   xmlns:cc="http://creativecommons.org/ns#"
   xmlns:rdf="http://www.w3.org/1999/02/22-rdf-syntax-ns#"
   xmlns:svg="http://www.w3.org/2000/svg"
   xmlns="http://www.w3.org/2000/svg"
   xmlns:sodipodi="http://sodipodi.sourceforge.net/DTD/sodipodi-0.dtd"
   xmlns:inkscape="http://www.inkscape.org/namespaces/inkscape"
   width="38.304981mm"
   height="38.304981mm"
   viewBox="0 0 38.304981 38.304981"
   version="1.1"
   id="svg8"
   inkscape:version="0.92.4 (5da689c313, 2019-01-14)"
   sodipodi:docname="BobRossLogo1.svg">
  <defs
     id="defs2" />
  <sodipodi:namedview
     id="base"
     pagecolor="#ffffff"
     bordercolor="#666666"
     borderopacity="1.0"
     inkscape:pageopacity="0.0"
     inkscape:pageshadow="2"
     inkscape:zoom="0.98994949"
     inkscape:cx="356.85014"
     inkscape:cy="17.122422"
     inkscape:document-units="mm"
     inkscape:current-layer="layer1"
     showgrid="false"
     inkscape:window-width="1680"
     inkscape:window-height="987"
     inkscape:window-x="-8"
     inkscape:window-y="-8"
     inkscape:window-maximized="1"
     fit-margin-top="0"
     fit-margin-left="0"
     fit-margin-right="0"
     fit-margin-bottom="0" />
  <metadata
     id="metadata5">
    <rdf:RDF>
      <cc:Work
         rdf:about="">
        <dc:format>image/svg+xml</dc:format>
        <dc:type
           rdf:resource="http://purl.org/dc/dcmitype/StillImage" />
        <dc:title></dc:title>
      </cc:Work>
    </rdf:RDF>
  </metadata>
  <g
     inkscape:label="Layer 1"
     inkscape:groupmode="layer"
     id="layer1"
     transform="translate(-14.597734,-61.793477)">
    <path
       style="fill:#000000;stroke-width:0.06877926"
       d="m 32.676046,98.190528 c -0.32154,-0.03334 -0.683894,-0.07894 -0.80523,-0.101349 -0.279224,-0.05157 -0.841471,-0.493093 -1.135374,-0.89158 -0.162237,-0.219976 -0.260808,-0.29603 -0.349606,-0.269742 -0.192404,0.05696 -0.309037,-0.09011 -0.393278,-0.495887 -0.07595,-0.365833 -0.08208,-0.373001 -0.318576,-0.373001 -0.259032,0 -0.643236,-0.303524 -0.643236,-0.50816 0,-0.14717 -0.375156,-0.559888 -0.732269,-0.805586 -0.323627,-0.222661 -0.428172,-0.460131 -0.313437,-0.711946 0.06258,-0.137346 0.0401,-0.189475 -0.168318,-0.39041 -0.1323,-0.127545 -0.474678,-0.603309 -0.760843,-1.057251 -1.190127,-1.887894 -1.185923,-1.88248 -1.68692,-2.175647 -0.586488,-0.343198 -1.33432,-1.081914 -1.592233,-1.572825 -0.270802,-0.515441 -0.464096,-0.712075 -1.116681,-1.135974 -0.572284,-0.371738 -0.803941,-0.622835 -1.733604,-1.879077 -0.389482,-0.526301 -0.424328,-0.602184 -0.424328,-0.924126 0,-0.615592 -0.201286,-1.220292 -0.863758,-2.594854 -0.644165,-1.336575 -0.646782,-1.344158 -0.760149,-2.200937 l -0.11376,-0.859742 0.157007,-0.412675 c 0.108034,-0.283954 0.159141,-0.571606 0.163849,-0.922204 0.0067,-0.503038 0.0095,-0.510385 0.213178,-0.576844 0.281756,-0.09192 0.280053,-0.08506 0.08007,-0.322722 -0.265785,-0.315869 -0.294855,-0.61964 -0.128108,-1.338605 0.0794,-0.342367 0.165072,-0.761764 0.19037,-0.931992 0.0931,-0.626448 0.54862,-1.766264 0.849479,-2.125608 0.226538,-0.270572 0.276596,-0.376845 0.242157,-0.514061 -0.0714,-0.28449 0.09314,-0.632318 0.524017,-1.107779 0.223965,-0.24714 0.50355,-0.642503 0.621299,-0.878588 0.329549,-0.660743 1.259742,-1.85438 1.703908,-2.186473 0.417629,-0.312253 1.140299,-0.68429 1.329385,-0.68438 0.06411,-2.7e-5 0.247038,-0.139243 0.406489,-0.309367 0.306579,-0.327093 0.636,-0.466488 0.952726,-0.403143 0.159557,0.03191 0.200162,0.0065 0.274041,-0.171922 0.135861,-0.328004 0.369774,-0.443431 0.821583,-0.405426 0.380446,0.032 0.391237,0.0278 0.73771,-0.288044 0.427193,-0.389413 0.768037,-0.503899 1.539815,-0.517207 0.504137,-0.0086 0.635811,-0.03772 0.95644,-0.210867 0.301821,-0.162992 0.457198,-0.201142 0.825351,-0.202656 0.249444,-0.001 0.56543,0.02401 0.702191,0.05563 0.235138,0.05437 0.25684,0.04426 0.39917,-0.186038 0.137064,-0.22177 0.166872,-0.237319 0.333552,-0.173947 0.125634,0.04777 0.37275,0.04494 0.787968,-0.0091 0.692801,-0.09005 1.073848,-0.04627 1.326402,0.152394 l 0.17668,0.138976 0.167891,-0.181156 0.167891,-0.181156 0.263666,0.134509 c 0.173916,0.08873 0.523657,0.158789 1.027506,0.205833 0.946104,0.08834 1.331178,0.216467 2.690464,0.895233 0.591987,0.295612 1.191705,0.574958 1.332704,0.620767 0.141001,0.0458 0.790964,0.456353 1.444365,0.912318 0.702986,0.490572 1.316969,0.867459 1.503898,0.923159 0.210839,0.06282 0.500578,0.253978 0.871174,0.574751 0.305407,0.264341 0.704885,0.567932 0.887741,0.674649 0.278836,0.162728 0.350811,0.248804 0.446236,0.533646 0.08263,0.246638 0.178746,0.380742 0.351093,0.489816 0.130525,0.08261 0.330604,0.268659 0.444622,0.413444 0.263293,0.334353 1.35355,2.589841 1.533503,3.172479 0.18807,0.608899 0.326084,1.739896 0.410164,3.36113 0.07831,1.510075 0.04763,1.826173 -0.244893,2.520644 -0.246162,0.584471 -0.269674,0.719989 -0.148824,0.857699 0.189514,0.215954 0.192914,0.396585 0.01756,0.93378 -0.09505,0.291291 -0.173365,0.582828 -0.173948,0.647859 -5.64e-4,0.06503 -0.124394,0.395292 -0.275121,0.733914 -0.150727,0.338621 -0.274053,0.71215 -0.274053,0.830063 0,0.494701 -0.469049,1.623963 -0.775008,1.865873 -0.132799,0.105003 -0.156283,0.176965 -0.133789,0.410042 0.05101,0.528607 -0.406595,1.109822 -1.059746,1.346004 -0.27036,0.09776 -0.280395,0.129199 -0.09484,0.297126 0.253693,0.229588 0.17743,0.403584 -0.326701,0.745362 -0.255345,0.173114 -0.716893,0.528712 -1.025665,0.790215 -0.814843,0.690109 -0.940018,0.768155 -1.237472,0.771549 -0.359701,0.0042 -0.658472,0.120152 -1.32948,0.516385 -0.354099,0.209096 -0.630054,0.428058 -0.729728,0.579022 -0.08816,0.133524 -0.376128,0.854656 -0.63993,1.602515 -0.263802,0.747864 -0.559614,1.534434 -0.657359,1.747936 -0.234514,0.51225 -0.70707,1.082052 -1.904034,2.295865 -1.029807,1.044305 -1.310506,1.240996 -1.954219,1.369359 -0.496615,0.09903 -2.173657,0.14023 -2.850797,0.07003 z m -2.682085,-3.782157 c 0.275566,-0.340594 0.308172,-0.46503 0.187929,-0.717182 -0.06084,-0.127589 -0.130788,-0.351162 -0.155435,-0.49683 -0.07207,-0.425941 -0.105046,-0.505574 -0.209383,-0.505574 -0.120391,0 -0.121125,-0.01421 0.03191,0.619015 0.09312,0.385288 0.107417,0.568065 0.0565,0.72218 -0.101413,0.306982 -0.160043,0.342956 -0.352945,0.216561 -0.240129,-0.157335 -0.284295,-0.145665 -0.447408,0.11826 -0.188577,0.305124 -0.184358,0.318581 0.09988,0.318581 0.20758,0 0.265066,0.03733 0.393945,0.255759 l 0.150901,0.255753 0.05246,-0.307236 c 0.02885,-0.168979 0.115089,-0.38466 0.191653,-0.479287 z m 2.533663,-0.176708 c 0.04231,-0.210618 0.140435,-0.472155 0.218077,-0.581195 l 0.14117,-0.198258 0.393238,0.237448 0.393238,0.237447 0.02194,-0.25063 c 0.01206,-0.137849 -0.03011,-0.484556 -0.09373,-0.770465 l -0.11565,-0.519832 -0.187819,0.230127 -0.18782,0.230124 -0.04456,-0.371138 c -0.08217,-0.684383 -0.0644,-0.818014 0.108997,-0.819705 0.524166,-0.0051 1.421471,-0.763598 1.657245,-1.400856 0.04551,-0.122998 0.01767,-0.1275 -0.52087,-0.08424 -1.006898,0.08088 -2.289663,-0.108172 -3.73607,-0.550631 -0.439314,-0.134389 -0.811137,-0.231956 -0.826272,-0.216823 -0.02337,0.02336 0.382144,2.450009 0.48977,2.930906 0.02443,0.109147 0.06974,0.148075 0.140679,0.12085 0.05755,-0.0221 0.199544,0.0088 0.315533,0.0689 l 0.210893,0.109057 -0.04616,0.509473 c -0.03053,0.336934 -0.02191,0.509471 0.02547,0.509471 0.04242,0 0.07165,0.184736 0.07165,0.452914 v 0.45292 l 0.356766,-0.284063 c 0.210222,-0.16738 0.414018,-0.27573 0.496131,-0.263775 0.07664,0.01117 0.233348,0.149941 0.348218,0.308402 0.114871,0.158462 0.227797,0.290002 0.250948,0.29231 0.02314,0.0022 0.0767,-0.168119 0.118994,-0.378737 z m -5.315052,-4.265237 0.07325,-0.338319 0.201861,0.291792 c 0.201873,0.291808 0.420009,0.411385 0.614386,0.336799 0.151248,-0.05804 0.129383,-0.433448 -0.06144,-1.054912 -0.257914,-0.839951 -0.257829,-0.833569 -0.01903,-1.465111 0.506815,-1.340291 1.000224,-1.946614 2.173213,-2.670547 0.387854,-0.239369 0.714411,-0.425075 0.725683,-0.412676 0.01128,0.0124 -0.04298,0.403973 -0.120557,0.870165 -0.116834,0.702108 -0.159776,0.842285 -0.250141,0.816542 -0.06,-0.01711 -0.152863,-0.04259 -0.206363,-0.05666 -0.06139,-0.01615 -0.207039,0.164731 -0.394797,0.490267 -0.163638,0.283713 -0.297831,0.539057 -0.298208,0.567428 -2.6e-4,0.02837 0.316561,0.05036 0.704304,0.04885 l 0.704987,-0.0028 0.335556,-0.30877 c 0.314809,-0.289673 0.32863,-0.316424 0.223534,-0.432553 -0.245844,-0.271655 -0.135597,-0.276448 0.841003,-0.03657 0.930248,0.22849 1.176777,0.20048 2.165514,-0.246064 0.422116,-0.190641 0.787754,-0.346521 0.812527,-0.346393 0.02477,1.35e-4 0.02902,0.119604 0.0095,0.265512 l -0.03558,0.265285 0.540775,-0.03323 c 0.297428,-0.01827 0.550665,-0.04179 0.562747,-0.05227 0.05046,-0.04369 -0.430493,-1.089478 -0.586078,-1.274377 l -0.16911,-0.200977 -0.218014,0.16312 c -0.119909,0.08971 -0.316736,0.213026 -0.437392,0.274024 l -0.219375,0.110907 -0.04693,-0.31296 c -0.04061,-0.270752 -0.02493,-0.336833 0.116208,-0.489937 0.327051,-0.354792 0.816098,-0.453828 1.281269,-0.259468 0.300574,0.125587 1.225266,1.06262 1.862953,1.887815 0.248761,0.32191 0.584675,0.735192 0.746473,0.918401 0.390584,0.442278 0.480945,0.779954 0.342987,1.281772 -0.139365,0.506936 -0.213216,1.033123 -0.144997,1.033123 0.129034,0 0.511508,-0.323746 0.668483,-0.565834 0.09341,-0.144068 0.233898,-0.517326 0.312185,-0.829466 0.161624,-0.644418 0.320053,-1.058024 0.371196,-0.969089 0.01908,0.03314 0.08919,0.227279 0.155847,0.43139 0.146642,0.449079 0.167992,0.41998 0.406254,-0.553742 0.325969,-1.332163 0.309545,-2.14756 -0.06009,-2.983377 -0.119657,-0.270516 -0.15011,-0.437542 -0.123247,-0.675877 0.05201,-0.461435 -0.08042,-0.614965 -0.844856,-0.979444 -0.364605,-0.173841 -0.682992,-0.373055 -0.726675,-0.454673 -0.05852,-0.109342 -0.0562,-0.235092 0.0094,-0.508466 0.100273,-0.417989 0.01805,-0.722781 -0.240724,-0.892336 -0.171786,-0.11256 -1.968393,-0.25587 -2.786515,-0.222273 -0.608962,0.025 -0.712059,0.151101 -0.321105,0.392725 0.191619,0.118426 0.272095,0.133075 0.420695,0.07658 0.32289,-0.122763 0.701143,-0.07604 1.383226,0.170867 0.365759,0.132399 0.734913,0.240727 0.820342,0.240727 0.183074,0 0.280983,0.102276 0.346038,0.361475 0.06213,0.247564 -0.027,0.245131 -0.644358,-0.01757 -0.574171,-0.244333 -0.60757,-0.247752 -0.664613,-0.06802 -0.02415,0.07608 -0.1394,0.187699 -0.256127,0.24806 -0.177673,0.09188 -0.273939,0.09736 -0.591219,0.03363 -0.560808,-0.112627 -0.614439,-0.102521 -0.664457,0.125203 -0.05486,0.249772 0.09218,0.552498 0.376381,0.774922 l 0.208262,0.162988 -0.143438,0.424739 c -0.0846,0.250523 -0.190625,0.438198 -0.258484,0.457549 -0.06327,0.01805 -0.378124,0.08493 -0.699666,0.148628 -0.78017,0.154561 -1.209406,0.157672 -1.357239,0.0099 -0.108887,-0.108887 -0.108502,-0.16174 0.0063,-0.855706 0.06726,-0.406808 0.146257,-0.987255 0.175559,-1.289885 0.04651,-0.480347 0.03718,-0.571068 -0.07344,-0.714263 -0.217202,-0.281178 -0.127338,-0.850996 0.173596,-1.100749 0.08655,-0.07183 0.128537,-0.04086 0.262457,0.193622 0.08768,0.153525 0.180176,0.279372 0.205542,0.279666 0.02537,2.59e-4 0.0653,-0.08678 0.08873,-0.193484 0.05896,-0.268464 0.396621,-0.659223 0.689892,-0.798389 0.134692,-0.06391 0.468486,-0.161389 0.741763,-0.216609 0.608621,-0.122975 1.425392,-0.37991 1.425392,-0.448389 0,-0.11601 -0.657596,-0.617135 -0.886548,-0.675598 -0.136571,-0.03488 -0.506385,-0.08479 -0.821807,-0.110927 l -0.573499,-0.04752 0.188082,0.284212 c 0.103448,0.156318 0.175814,0.295421 0.160822,0.309125 -0.04252,0.03885 -1.025396,0.384966 -1.093222,0.384966 -0.03326,0 -0.08217,-0.144776 -0.108713,-0.321726 -0.05838,-0.389259 -0.165828,-0.495192 -0.958095,-0.944622 l -0.595516,-0.337819 -0.149538,0.187538 -0.14954,0.18754 -0.333118,-0.186186 c -0.421428,-0.23554 -0.520018,-0.401874 -0.802452,-1.353836 -0.12614,-0.425166 -0.239893,-0.786573 -0.252786,-0.803127 -0.01289,-0.01656 -0.155504,0.09951 -0.316914,0.25792 -0.375789,0.368809 -0.581555,0.378991 -0.858922,0.0425 -0.18453,-0.223867 -0.224407,-0.241393 -0.452071,-0.198682 -0.303727,0.05699 -0.316308,0.162752 -0.04335,0.364553 0.147741,0.109229 0.206336,0.209878 0.206336,0.354413 0,0.293497 -0.183661,0.367937 -0.558857,0.226502 -0.439464,-0.165659 -0.55835,-0.287283 -0.522082,-0.5341 0.03574,-0.24322 -0.07652,-0.531456 -0.195834,-0.502883 -0.04565,0.01092 -0.515285,0.397909 -1.043639,0.859944 l -0.960639,0.840064 -0.04385,0.432353 c -0.02412,0.237793 -0.124714,0.695431 -0.223558,1.016976 -0.138481,0.450484 -0.193174,0.821333 -0.238379,1.616312 -0.03227,0.567428 -0.108479,1.294769 -0.169365,1.616313 -0.06089,0.321542 -0.137091,1.12626 -0.169342,1.78826 -0.03225,0.662001 -0.09507,1.358393 -0.139622,1.547536 -0.117509,0.498971 -0.104226,1.627237 0.02727,2.316891 0.06265,0.328576 0.236488,0.978538 0.386304,1.444365 0.219866,0.683642 0.327234,0.910545 0.556819,1.17673 0.156438,0.181373 0.31953,0.318144 0.362427,0.303932 0.04289,-0.01423 0.110963,-0.178087 0.151255,-0.364164 z m 11.139924,-6.848665 c 0.229512,-0.402748 0.648951,-0.596355 1.023894,-0.472612 0.233145,0.07694 0.505569,0.384443 0.41824,0.472088 -0.02501,0.02509 -0.371561,0.05627 -0.770141,0.0693 -0.591939,0.01935 -0.715035,0.0067 -0.671993,-0.06878 z m -7.646975,-1.158546 c 0.02269,-0.113485 0.03421,-0.206337 0.02558,-0.206337 -0.0086,0 -0.232152,0.0619 -0.496711,0.13756 -0.26456,0.07565 -0.50433,0.137556 -0.532822,0.137556 -0.0285,0 -0.0518,-0.155342 -0.0518,-0.345204 0,-0.341418 -0.0021,-0.344725 -0.189145,-0.301156 -0.104023,0.02423 -0.45922,0.186501 -0.789314,0.360607 -0.418036,0.220489 -0.622026,0.294706 -0.672179,0.244553 -0.11297,-0.112971 0.326126,-0.516508 0.831255,-0.763941 0.578978,-0.283602 1.15886,-0.387332 1.648971,-0.294965 0.351422,0.06622 1.065033,0.374974 1.137428,0.492109 0.05285,0.08553 -0.235866,0.596915 -0.380795,0.674478 -0.07305,0.03909 -0.231569,0.07108 -0.352271,0.07108 -0.207159,0 -0.217144,-0.01156 -0.178189,-0.206339 z m -3.806934,-1.112086 c 0.421113,-0.355744 1.151463,-0.815847 1.597325,-1.006277 0.384098,-0.164048 0.518824,-0.184439 1.222627,-0.185052 0.741984,-5.07e-4 0.816516,0.01209 1.203637,0.205648 0.730736,0.365367 0.68351,0.390326 -1.355268,0.716215 -0.994718,0.159001 -2.056185,0.330434 -2.358814,0.380959 l -0.550236,0.09187 z m 6.243611,8.983416 c 0.122395,-0.08573 0.152863,-0.173858 0.152863,-0.442154 0,-0.358569 -0.120201,-0.551246 -0.343896,-0.551246 -0.223694,0 -0.343896,0.192677 -0.343896,0.551246 0,0.268296 0.03047,0.356423 0.152862,0.442154 0.08407,0.05889 0.170039,0.107067 0.191034,0.107067 0.021,0 0.106956,-0.04818 0.191033,-0.107067 z M 32.387174,89.71752 c 0.04539,-0.04539 0.08253,-0.240386 0.08253,-0.43331 0,-0.383659 -0.08221,-0.515844 -0.320843,-0.515844 -0.191087,0 -0.298171,0.185255 -0.298171,0.515844 0,0.137375 0.03204,0.309635 0.0712,0.382805 0.07959,0.148709 0.338923,0.176861 0.46528,0.05051 z m 1.900273,-0.02554 c 0.141794,-0.141789 0.13842,-0.569745 -0.0058,-0.729047 -0.130031,-0.143686 -0.369882,-0.16479 -0.491429,-0.04324 -0.04538,0.04539 -0.08253,0.224907 -0.08253,0.398917 0,0.174014 0.03715,0.353526 0.08253,0.39892 0.115739,0.115738 0.3689,0.102723 0.497177,-0.02554 z m -2.588065,-0.11201 c 0.04538,-0.0454 0.08253,-0.209435 0.08253,-0.364531 0,-0.155096 -0.03715,-0.319133 -0.08253,-0.364528 -0.09887,-0.09887 -0.398919,-0.110503 -0.398919,-0.01547 0,0.03775 -0.08973,0.04911 -0.205279,0.02602 -0.237499,-0.04749 -0.318739,0.07189 -0.246033,0.361565 0.0365,0.145437 0.07678,0.173126 0.213754,0.146944 0.125479,-0.02399 0.168776,-0.0022 0.168776,0.08429 0,0.06411 0.02064,0.137193 0.04585,0.162411 0.07474,0.07474 0.332879,0.05228 0.421846,-0.03668 z m 3.449578,-0.223185 c 0.180873,-0.217941 -0.04409,-0.595402 -0.297017,-0.498345 -0.113036,0.04337 -0.162842,0.455697 -0.06666,0.551874 0.07921,0.07921 0.277765,0.04999 0.363682,-0.05353 z m -9.832295,-2.330081 c 0,-0.141567 -0.883506,-0.890746 -0.998444,-0.846643 -0.18604,0.07139 0.119093,0.589605 0.474935,0.80659 0.247665,0.151022 0.523509,0.172128 0.523509,0.04006 z m 17.730925,-1.67117 c 0.08681,-0.05616 0.187423,-0.179962 0.2236,-0.275117 0.07628,-0.200625 0.0099,-0.729733 -0.08749,-0.697273 -0.03625,0.01209 -0.20752,0.281021 -0.38058,0.597631 l -0.314659,0.575653 0.200655,-0.0494 c 0.110359,-0.02717 0.271676,-0.09534 0.358475,-0.151499 z"
       id="path3735-7"
       inkscape:connector-curvature="0" />
    <circle
       id="path3748-8-2"
       cx="33.750225"
       cy="80.945969"
       style="fill:none;stroke:#000000;stroke-width:0.20498408;stroke-opacity:1"
       r="19.049999" />
  </g>
</svg>
